<mxfile host="app.diagrams.net" modified="2021-05-24T03:30:54.902Z" agent="5.0 (X11; Linux x86_64) AppleWebKit/537.36 (KHTML, like Gecko) Chrome/87.0.4280.88 Safari/537.36" etag="Rx4BzR1PNk0jIY9U7u-Y" version="14.2.9" type="github">
  <diagram id="hZhgpZs_GU058HraGcmq" name="Page-1">
    <mxGraphModel dx="1422" dy="808" grid="1" gridSize="10" guides="1" tooltips="1" connect="1" arrows="1" fold="1" page="1" pageScale="1" pageWidth="850" pageHeight="1100" math="0" shadow="0">
      <root>
        <mxCell id="0" />
        <mxCell id="1" parent="0" />
        <mxCell id="U2t_4QyhruCBx18jn5Uo-1" value="Worker" style="ellipse;whiteSpace=wrap;html=1;" vertex="1" parent="1">
          <mxGeometry x="150" y="160" width="130" height="50" as="geometry" />
        </mxCell>
      </root>
    </mxGraphModel>
  </diagram>
</mxfile>
